<?xml version="1.0"?><svg width="533.3333333333333" height="533.3333333333333" xmlns="http://www.w3.org/2000/svg" xmlns:xlink="http://www.w3.org/1999/xlink">
 <title>Green flower</title>
 <defs>
  <linearGradient id="linearGradient650">
   <stop id="stop651" offset="0" stop-color="#000"/>
   <stop id="stop652" offset="1" stop-color="#fff"/>
  </linearGradient>
  <linearGradient gradientUnits="objectBoundingBox" id="linearGradient653" spreadMethod="repeat" x1="1.000005" x2="1.166669" xlink:href="#linearGradient650" y1="0.53125" y2="0.539063"/>
  <linearGradient gradientUnits="objectBoundingBox" id="linearGradient654" spreadMethod="repeat" x1="1.222227" x2="1.166668" xlink:href="#linearGradient650" y1="0.460938" y2="0.460938"/>
 </defs>
 <g>
  <title>Layer 1</title>
  <path d="m230.222,154.272003c0,0 3.955002,-55.3797 12.658005,-79.905006c8.701996,-24.525295 18.195984,-38.765896 56.17099,-54.588596c43.513,-2.373501 75.15802,-10.284881 98.101013,22.943001c16.613983,39.556896 15.822998,58.544598 5.537994,92.563602c-11.075989,26.106979 -15.032013,29.272003 -40.347992,49.841003c-28.481018,10.284988 -52.214996,16.613998 -52.214996,16.613998l-79.905014,-47.468002z" id="path683" stroke-width="3.75" stroke="black" fill-rule="evenodd" fill="#ffff00"/>
  <path d="m310.917999,201.740005c0,0 -19.778992,91.772995 -19.778992,92.56398c0,0.791016 13.449005,15.822021 43.513,38.765015c32.436981,22.152985 36.393005,32.437988 87.024994,28.481995c30.855011,-18.196991 34.019012,-18.988007 53.006989,-45.886993c3.955017,-31.644989 11.076019,-53.796997 1.582001,-81.487c-21.360992,-19.779007 -17.404999,-26.106995 -71.993988,-35.600998c-54.588013,-9.494003 -93.354004,4.746994 -93.354004,3.164001z" id="path684" stroke-width="3.75" stroke="black" fill-rule="evenodd" fill="#ffff00"/>
  <path d="m289.557007,295.095001l-89.39801,10.283997c0,0 -7.121002,46.678009 -11.867996,75.950012c-0.791,28.480988 -2.373993,59.334991 7.119995,75.949005c11.076004,13.449982 39.557007,25.316986 59.335999,27.689972c17.405014,-1.580994 40.348007,-3.955994 65.664993,-18.987c14.240021,-18.195984 21.361023,-24.524994 25.31601,-60.917999c-4.747009,-36.391998 -56.962006,-109.177002 -56.17099,-109.967987z" id="path685" stroke-width="3.75" stroke="black" fill-rule="evenodd" fill="#ffff00"/>
  <path d="m229.431,153.481003c-0.791,0 -70.412003,68.828995 -70.412003,68.828995c0,0 -37.182999,-11.867004 -60.917496,-30.063995c-23.734398,-18.195999 -41.1395,-38.764999 -47.468601,-73.575005c-0.791199,-26.898994 0.7911,-41.139496 10.284801,-61.709099c20.569595,-17.405098 34.0186,-25.316498 56.962296,-27.689899c23.734001,-3.164499 37.183998,0 54.588997,15.031601c17.404999,15.0317 29.272003,34.810299 32.436005,45.095097c3.165009,10.284805 24.526001,66.455307 24.526001,64.082306z" id="path686" stroke-width="3.75" stroke="black" fill-rule="evenodd" fill="#ffff00"/>
  <path d="m199.367004,306.17099l-41.139008,-82.278992c0,0 -69.620399,-13.449005 -91.772293,-3.164001c-22.151905,10.285004 -35.601204,33.227997 -47.468304,55.380005c-7.1203,18.987 -15.82284,27.690002 -6.3292,62.498993c11.867099,35.601013 13.449399,39.557007 49.0507,49.84201c36.392403,0.790985 60.918098,-1.582001 85.443092,-17.404999c24.526001,-15.822998 52.215012,-64.082001 52.215012,-64.873016z" id="path687" stroke-width="3.75" stroke="black" fill-rule="evenodd" fill="#ffff00"/>
  <path d="m321.202637,234.572693a82.67408,81.882919 0 1 0 -165.34816,0a82.674103,81.88295 0 1 0 165.348495,-0.000412l-82.674423,0.000412l82.674088,0z" id="path682" stroke-width="3.67682" fill="none" stroke="#000000" fill-rule="evenodd"/>
  <path d="m318.829224,234.572815a80.300667,79.509567 0 1 0 -160.601334,0a80.300697,79.509598 0 1 0 160.601669,-0.000397l-80.300995,0.000397l80.300659,0z" id="path688" stroke-width="3.67682" fill="#ff7f00" fill-rule="evenodd"/>
  <path d="m238.335999,131.362c0,-39.584503 13.195007,-83.293499 37.110992,-95.663799c16.494019,-12.370399 77.522003,-18.968 94.839996,-2.474102c14.019012,39.585213 -54.428986,114.632896 -131.950989,98.137901z" id="path568" fill-opacity="0.5" stroke-width="1pt" fill-rule="evenodd" fill="#ffffff"/>
  <path d="m327.403015,203.936005c20.616974,-9.897003 111.333984,1.647995 130.301971,16.492996c24.739014,20.617004 18.143005,45.358994 14.019012,74.223007c-12.371002,-54.430008 -172.359985,-0.825012 -144.320984,-90.716003z" id="path570" fill-opacity="0.5" stroke-width="1pt" fill-rule="evenodd" fill="#ffffff"/>
  <path d="m202.048996,318.567993c-4.123001,14.02002 -19.791992,120.404999 -4.947998,132.774994c11.546997,18.143005 60.202988,31.338013 82.470016,27.215027c2.472992,-10.721008 15.668976,-152.568024 -77.522018,-159.990021z" id="path572" fill-opacity="0.498039" stroke-width="1pt" fill-rule="evenodd" fill="#ffffff"/>
  <path d="m143.496002,212.182999c-20.617004,-9.072006 -76.6959,-42.059998 -86.592201,-84.944c-7.422302,-23.090996 2.474098,-66.799999 14.019798,-70.098797c18.967804,-8.247002 103.086395,21.441998 72.572403,155.042797z" id="path573" fill-opacity="0.498039" stroke-width="1pt" fill-rule="evenodd" fill="#ffffff"/>
  <path d="m18.143299,340.01001c-7.422299,-24.740997 -13.195119,-46.183014 23.091301,-92.366013c20.617298,-44.533005 97.313404,-20.617004 105.560383,-18.968002c25.56601,51.955994 -94.839375,20.618011 -128.651684,111.334015l0.000011,0l-0.000011,0z" id="path574" fill-opacity="0.498039" stroke-width="1pt" fill-rule="evenodd" fill="#ffffff"/>
 </g>
</svg>